# xmcd CD database file
#
# Track frame offsets:
#	182
#	11855
#	26162
#	38767
#	51952
#	63635
#	73960
#	88882
#	101417
#	113780
#	127185
#	141235
#	154960
#	169172
#	183705
#	195915
#	207975
#	219872
#	234625
#	249012
#	263100
#	276715
#	291367
#	304580
#
# Disc length: 4231 seconds
#
# Revision: 2
# Processed by: cddbd v1.4PL0 Copyright (c) Steve Scherf et al.
# Submitted via: CDex 1.40Release
#
DISCID=77108518
DTITLE=Muddy Waters - Rollin' And Tumblin'
DYEAR=1900
DGENRE=Blues
TTITLE0=Gypsy Woman
TTITLE1=I Feel Like Going Home
TTITLE2=Train Fare Home
TTITLE3=Down South Blues
TTITLE4=Sittin' Here And Drinkin' (Whiskey Blues)
TTITLE5=Mean Red Spider
TTITLE6=Streamline Woman
TTITLE7=Little Geneva
TTITLE8=Canary Bird
TTITLE9=Rollin' And Tumblin'
TTITLE10=You're Gonna Need My Help
TTITLE11=Sad Letter Blues
TTITLE12=Early Morning Blues
TTITLE13=Too Young To Know
TTITLE14=Howling Wolf
TTITLE15=Flood
TTITLE16=My Life Is Ruined
TTITLE17=Baby Please Don't Go
TTITLE18=Blow Wind Blow
TTITLE19=Smokestack Lightnin'
TTITLE20=Young Fashioned Ways
TTITLE21=Just To Be With You
TTITLE22=Don't Go No Further
TTITLE23=I Live The Life I Love
EXTD=ID3G: 0
EXTT0=
EXTT1=
EXTT2=
EXTT3=
EXTT4=
EXTT5=
EXTT6=
EXTT7=
EXTT8=
EXTT9=
EXTT10=
EXTT11=
EXTT12=
EXTT13=
EXTT14=
EXTT15=
EXTT16=
EXTT17=
EXTT18=
EXTT19=
EXTT20=
EXTT21=
EXTT22=
EXTT23=
PLAYORDER=
